HIERARCHY
ROOT Hips
{
  OFFSET 3.13124 94.3669 -3.18751
  CHANNELS  6 Xposition Yposition Zposition Zrotation Xrotation Yrotation
  JOINT LeftUpLeg
  {
    OFFSET 8.64259 1.95398 -2.38835
    CHANNELS 3 Zrotation Xrotation Yrotation
    JOINT LeftLeg
    {
      OFFSET 43.7702 0 0
      CHANNELS 3 Zrotation Xrotation Yrotation
      JOINT LeftFoot
      {
        OFFSET 40.6238 0 0
        CHANNELS 3 Zrotation Xrotation Yrotation
        JOINT LeftToeBase
        {
          OFFSET 12.7242 0 0
          CHANNELS 3 Zrotation Xrotation Yrotation
          End Site
          {
            OFFSET 0 0 0
          }
        }
      }
    }
  }
  JOINT RightUpLeg
  {
    OFFSET -8.2249 1.95398 -2.59336
    CHANNELS 3 Zrotation Xrotation Yrotation
    JOINT RightLeg
    {
      OFFSET 43.5653 0 0
      CHANNELS 3 Zrotation Xrotation Yrotation
      JOINT RightFoot
      {
        OFFSET 40.6238 0 0
        CHANNELS 3 Zrotation Xrotation Yrotation
        JOINT RightToeBase
        {
          OFFSET 12.7242 0 0
          CHANNELS 3 Zrotation Xrotation Yrotation
          End Site
          {
            OFFSET 0 0 0
          }
        }
      }
    }
  }
  JOINT Spine
  {
    OFFSET 0.165834 0.87714 6.61349
    CHANNELS 3 Zrotation Xrotation Yrotation
    JOINT Spine1
    {
      OFFSET 7.38962 1.71661e-005 0
      CHANNELS 3 Zrotation Xrotation Yrotation
      JOINT Spine2
      {
        OFFSET 11.9445 1.14441e-005 0
        CHANNELS 3 Zrotation Xrotation Yrotation
        JOINT Spine3
        {
          OFFSET 14.7254 4.19617e-005 0
          CHANNELS 3 Zrotation Xrotation Yrotation
          JOINT Spine4
          {
            OFFSET 10.9679 0 0
            CHANNELS 3 Zrotation Xrotation Yrotation
            JOINT RightShoulder
            {
              OFFSET 2.46616 -1.6653 3.69651
              CHANNELS 3 Zrotation Xrotation Yrotation
              JOINT RightArm
              {
                OFFSET 13.0012 0 0
                CHANNELS 3 Zrotation Xrotation Yrotation
                JOINT RightForeArm
                {
                  OFFSET 28.7848 1.52588e-005 0
                  CHANNELS 3 Zrotation Xrotation Yrotation
                  JOINT RightHand
                  {
                    OFFSET 26.5688 1.52588e-005 0
                    CHANNELS 3 Zrotation Xrotation Yrotation
                    End Site
                    {
                      OFFSET 0 0 0
                    }
                  }
                }
              }
            }
            JOINT LeftShoulder
            {
              OFFSET 2.38034 -1.29275 -3.75231
              CHANNELS 3 Zrotation Xrotation Yrotation
              JOINT LeftArm
              {
                OFFSET 16.3182 6.10352e-005 0
                CHANNELS 3 Zrotation Xrotation Yrotation
                JOINT LeftForeArm
                {
                  OFFSET 27.0901 0 0
                  CHANNELS 3 Zrotation Xrotation Yrotation
                  JOINT LeftHand
                  {
                    OFFSET 24.5451 1.52588e-005 0
                    CHANNELS 3 Zrotation Xrotation Yrotation
                    End Site
                    {
                      OFFSET 0 0 0
                    }
                  }
                }
              }
            }
            JOINT Neck
            {
              OFFSET 5.0226 -0.0266342 0
              CHANNELS 3 Zrotation Xrotation Yrotation
              JOINT Head
              {
                OFFSET 6.69363 2.86102e-005 0
                CHANNELS 3 Zrotation Xrotation Yrotation
                End Site
                {
                  OFFSET 0 0 0
                }
              }
            }
          }
        }
      }
    }
  }
}
MOTION
Frames:	16
Frame Time:	0.0333333
63.3323 104.455 -8.54541 -83.5062 5.10409 -94.6735 -172.84 13.7041 91.896 -21.3535 -0.776651 0.0763811 35.8597 8.31132 6.69823 28.7808 5.43691e-006 7.50049e-006 -179.361 17.4001 91.7648 -32.7742 16.1899 0.7169 34.3095 4.99235 5.80333 28.7808 1.56902e-005 2.33206e-005 -0.0224192 6.57353 -87.9228 13.7241 0.743155 1.55848 2.0525 0.811011 1.52426 -20.4755 0.240451 1.70972 -0.462808 0.240479 1.70972 104.177 -33.423 -78.1265 51.7277 -41.1888 15.9049 -9.08532 2.79547 -81.6912 -5.37983 -0.319997 -0.0162406 -75.063 -40.0277 101.79 -25.0504 -18.5804 9.78057 43.6595 73.3187 -45.1893 18.2401 -1.75927 -13.5036 9.63619 14.954 1.95245 -12.0886 12.5367 19.8175 
63.7703 104.537 -8.62274 -84.2856 -6.38329 -95.7368 -172.709 14.0237 92.6208 -23.7655 -6.02905 -0.107074 35.5366 8.82104 7.22746 28.7808 5.43691e-006 7.50049e-006 -179.393 17.4294 91.3915 -33.7288 13.5377 0.532317 34.849 4.6359 5.39431 28.7808 1.56902e-005 2.33206e-005 -0.135107 6.66706 -87.5905 13.5318 0.60207 1.68424 1.85998 0.675609 1.65612 -20.6665 0.0681149 1.78729 -0.653849 0.0681163 1.78728 103.971 -29.3864 -78.3238 56.2652 -40.6996 22.1309 -8.73262 2.9492 -80.7915 -5.37983 -0.319997 -0.0162406 -74.338 -41.605 102.92 -24.1278 -18.4093 9.86323 35.4645 71.34 -38.0588 20.8016 -1.98665 -13.5992 4.2939 20.6979 1.58374 -13.7994 17.8597 23.5819 
64.1367 104.595 -8.47609 -84.8732 -17.1582 -94.771 -172.794 13.6993 92.7378 -23.9011 -9.97275 -0.296891 35.7018 5.94535 4.48277 28.7808 5.43691e-006 7.50049e-006 -179.375 17.4067 91.3613 -34.1191 16.1577 0.690283 34.829 3.23297 4.03959 28.7808 1.56902e-005 2.33206e-005 -0.106591 6.7522 -87.4475 13.3603 0.71516 1.94381 1.68814 0.800008 1.91046 -20.8354 0.0980161 2.06882 -0.822798 0.0980284 2.06882 103.022 -26.3943 -80.2153 59.8795 -40.8906 28.3247 -8.91705 4.7075 -79.659 -5.37983 -0.319997 -0.0162406 -73.2187 -42.8503 104.683 -23.0275 -17.9923 9.41188 30.396 70.0018 -33.9078 21.4225 -2.19504 -14.3345 -0.475597 24.5764 1.21764 -15.1644 21.5847 25.0849 
64.5335 104.574 -8.16839 -85.5154 -27.4109 -94.4254 -172.951 13.2439 92.3723 -22.6562 -7.18366 0.459698 35.2563 1.04946 -0.220824 28.7808 5.43691e-006 7.50049e-006 -179.396 17.4509 91.5151 -34.8095 19.0295 0.879703 34.6693 2.60488 3.44484 28.7808 1.56902e-005 2.33206e-005 0.0335033 6.84051 -87.4832 13.1848 1.00996 2.19757 1.5125 1.10568 2.15101 -21.0082 0.303027 2.39939 -0.99559 0.30301 2.39938 102.083 -24.292 -82.2782 62.6205 -41.367 33.5354 -8.82656 5.76424 -77.5633 -5.37983 -0.319997 -0.0162406 -72.3569 -43.351 106.051 -22.5149 -17.7302 8.64587 24.0561 67.942 -28.2856 22.9021 -2.7229 -16.0474 -4.09766 26.3699 -0.655118 -16.0994 23.437 26.1977 
64.9832 104.51 -7.75877 -86.8667 -37.8853 -93.9415 -172.995 13.172 92.0315 -22.6431 -5.00688 0.555456 35.2628 -1.17889 -2.36776 28.7808 5.43691e-006 7.50049e-006 -179.363 17.1705 92.0159 -35.9982 21.5193 1.04822 33.3156 2.97299 3.92011 28.7808 1.56902e-005 2.33206e-005 0.196249 6.98869 -87.5504 12.8903 1.31291 2.30701 1.21803 1.41318 2.24701 -21.3021 0.559148 2.59474 -1.28943 0.559133 2.59474 101.29 -23.6933 -84.0959 64.0932 -42.6383 37.4112 -8.43566 6.59256 -74.8101 -5.37983 -0.319997 -0.0162406 -72.1699 -42.8547 106.412 -22.6577 -17.1637 8.30502 13.2046 61.1046 -19.6082 29.8868 -3.99254 -17.8687 -7.45789 26.7429 -4.18195 -15.9452 24.0202 27.8457 
65.4766 104.556 -7.4331 -88.1822 -48.3279 -93.6052 -173.231 15.0152 91.4071 -25.1762 -3.65611 1.07037 31.7727 -1.55696 -3.04112 28.7808 5.43691e-006 7.50049e-006 -179.255 17.405 92.408 -37.3401 22.1194 1.05865 29.925 3.37019 4.65276 28.7808 1.56902e-005 2.33206e-005 0.261345 7.13545 -87.2877 12.6034 1.52365 2.20596 0.931535 1.61925 2.1368 -21.5911 0.790472 2.56168 -1.57844 0.79048 2.56168 100.321 -23.6821 -86.3054 64.3863 -44.0228 40.0371 -7.79242 6.90271 -71.8731 -5.37983 -0.319997 -0.0162406 -72.4281 -42.7191 106.001 -22.7143 -17.2961 9.01386 38.3397 72.7233 -40.7004 12.3623 -2.15354 -20.1409 -9.47968 26.0107 -7.01955 -15.074 23.601 28.0791 
66.1687 104.441 -7.1427 -88.6497 -58.4909 -92.4517 -173.699 15.8105 90.5891 -24.7517 -2.12042 1.72086 30.4858 -2.44412 -4.08335 28.7808 5.43691e-006 7.50049e-006 -179.377 18.7684 92.5301 -39.2495 19.4672 0.851995 24.6049 4.85098 6.94494 28.7808 1.56902e-005 2.33206e-005 0.331993 7.20438 -87.3168 12.4715 1.68247 2.06851 0.800101 1.7719 1.99248 -21.7255 0.983255 2.47833 -1.71288 0.983256 2.47832 99.6519 -24.0237 -87.7947 64.0754 -46.3252 41.8545 -7.09391 6.60192 -69.3441 -5.37983 -0.319997 -0.0162406 -72.8646 -42.0575 105.345 -23.5597 -17.6384 10.0699 41.6897 73.5669 -44.0512 12.2917 -1.41777 -14.6728 -10.541 24.0563 -9.38826 -13.2621 22.2671 26.2554 
67.0279 104.214 -6.94978 -88.4171 -68.3984 -90.2311 -173.878 16.3424 90.2643 -23.3686 -0.894864 1.79919 29.99 -2.82411 -4.53182 28.7808 5.43691e-006 7.50049e-006 -179.521 19.7752 92.3056 -40.2252 13.9258 0.48225 17.9248 8.10256 12.1619 28.7808 1.56902e-005 2.33206e-005 0.385716 7.27553 -87.5181 12.3343 1.74448 1.80692 0.663419 1.82232 1.7284 -21.8663 1.12093 2.24752 -1.85361 1.12093 2.24752 98.6703 -25.2007 -89.8493 61.6069 -48.5517 42.5856 -6.41987 5.82583 -67.3055 -5.37983 -0.319997 -0.0162406 -72.8539 -42.2071 105.348 -23.3965 -17.4404 10.48 42.0979 75.2734 -44.8231 13.1554 -1.10657 -11.8115 -11.5568 21.1995 -10.9167 -10.4797 20.1389 23.5322 
67.9955 103.692 -6.84666 -86.5767 -77.8586 -85.9715 -174.1 17.1592 90.8053 -23.253 -5.07994 1.22109 33.1194 -0.683346 -2.03595 28.7808 5.43691e-006 7.50049e-006 -179.636 19.1075 91.7354 -40.5332 4.74873 -0.0559831 16.8498 14.0687 20.252 28.7808 1.56902e-005 2.33206e-005 0.490787 7.32174 -87.9012 12.2489 1.79881 1.33947 0.578611 1.85601 1.25898 -21.957 1.31316 1.81811 -1.94435 1.31314 1.81809 97.1157 -26.7098 -93 59.7957 -51.5347 45.6674 -6.23832 4.37046 -66.6508 -5.37983 -0.319997 -0.0162406 -73.5442 -42.6739 104.161 -22.5665 -17.1991 12.3449 47.2704 77.9079 -50.1806 15.7004 -1.16257 -11.1013 -13.9481 17.7657 -10.7538 -6.11055 17.4295 20.0003 
68.8742 102.432 -6.86355 -66.1317 -86.1128 -62.8965 -173.614 19.2439 91.7774 -25.576 -0.340748 0.954212 40.7812 1.46968 0.27081 28.7808 5.43691e-006 7.50049e-006 -179.837 18.6393 91.2702 -43.394 0.477616 -0.314885 27.9413 17.3845 20.0969 28.7808 1.56902e-005 2.33206e-005 0.662158 7.32957 -88.4413 12.2373 1.93711 0.773045 0.567596 1.96925 0.687008 -21.9743 1.61522 1.31957 -1.96168 1.61522 1.31957 95.4003 -27.3431 -96.526 58.8916 -53.8942 48.5711 -5.38944 2.68286 -65.5258 -5.37983 -0.319997 -0.0162406 -73.9763 -43.0398 103.419 -21.7037 -17.4085 14.2316 59.2896 80.6999 -61.8528 21.937 -1.47692 -10.8934 -15.719 14.4607 -9.24351 -0.982578 14.7372 15.1696 
69.4362 100.438 -6.91686 59.3024 -85.4641 64.599 -173.306 22.7352 92.2293 -31.9311 8.19949 2.53669 50.0847 3.68107 2.05816 28.7808 5.43691e-006 7.50049e-006 -179.614 17.1125 89.7321 -45.7508 21.226 0.936488 36.1877 12.2698 12.4134 28.7808 1.56902e-005 2.33206e-005 0.979249 7.43765 -88.6723 12.0372 2.48816 0.324642 0.368606 2.50003 0.214753 -22.1828 2.2755 1.05779 -2.17017 2.2755 1.0578 94.1618 -27.482 -99.1026 57.8751 -55.8994 49.1357 -3.45462 0.620911 -64.515 -5.37983 -0.319997 -0.0162406 -73.9573 -41.9417 103.534 -22.254 -18.114 13.9226 100.516 79.7047 -100.432 5.36761 -0.847949 -15.3681 -14.7986 10.6042 -7.23193 1.87739 11.0244 8.495 
69.7871 97.9385 -7.17173 69.3984 -78.2706 76.3385 -173.619 27.2719 91.7466 -38.893 14.5274 5.11219 59.8563 5.48318 3.03535 28.7808 5.43691e-006 7.50049e-006 -179.291 16.884 86.0297 -47.6397 42.3843 2.85577 34.9841 5.36895 6.06481 28.7808 1.56902e-005 2.33206e-005 1.34414 7.50271 -88.6535 11.9359 3.28445 0.0273501 0.269107 3.28246 -0.117397 -22.2971 3.12423 1.01418 -2.28444 3.12423 1.01417 93.6665 -27.9784 -99.9953 53.0208 -56.9887 45.1031 -0.509201 -1.95729 -63.4612 -5.37983 -0.319997 -0.0162406 -74.0628 -39.263 103.561 -24.3248 -18.7722 12.421 126.909 76.2567 -124.274 -1.71753 -0.175485 -18.2088 -10.1589 5.90276 -5.75503 0.184884 6.22412 1.52142 
70.1327 95.5729 -7.61355 63.7427 -70.6386 71.6328 -174.328 34.6943 89.4425 -45.5679 15.2545 6.15796 65.0394 8.40365 4.44937 28.7808 5.43691e-006 7.50049e-006 -179.115 16.6524 79.9409 -45.8512 48.2868 3.62123 28.2082 3.6142 5.09128 28.7808 1.56902e-005 2.33206e-005 1.46463 7.29088 -88.0407 12.4071 4.0374 0.0300113 0.742411 4.0348 -0.148 -21.8397 3.84143 1.24384 -1.82705 3.84143 1.24385 92.6889 -29.4985 -101.546 43.985 -54.6234 36.5246 5.18848 -5.15256 -59.7669 -5.37983 -0.319997 -0.0162406 -74.042 -37.3953 103.748 -24.6813 -18.2265 12.9219 124.548 74.6107 -121.855 -2.94343 -0.0190547 -18.7169 -5.36113 1.52652 -5.1919 -1.55394 1.98927 -2.69262 
70.3041 93.4554 -8.29966 57.0853 -62.1853 64.9068 -176.656 43.9842 85.2527 -50.454 11.6208 7.39856 66.1783 8.389 4.39145 28.7808 5.43691e-006 7.50049e-006 -179.749 16.3233 73.5898 -41.1816 40.989 2.66419 23.6226 6.16134 8.63062 28.7808 1.56902e-005 2.33206e-005 1.60866 7.0881 -87.6391 12.832 4.87891 0.520953 1.17021 4.89708 0.305195 -21.429 4.49635 1.96605 -1.41639 4.49634 1.96603 92.8411 -30.609 -100.904 33.5028 -47.4881 23.6494 13.4889 -7.82445 -51.0141 -5.37983 -0.319997 -0.0162406 -73.8272 -37.6754 104.104 -24.8858 -18.9022 10.826 111.36 77.349 -108.695 -1.27597 -0.227934 -18.7484 1.99971 -3.44994 -2.32686 -4.59844 -2.8768 -7.31622 
69.9723 91.6816 -8.90809 58.5258 -56.6144 66.8242 -176.915 48.7737 83.6282 -54.3614 8.51915 6.88805 67.7582 9.65926 4.96743 28.7808 5.43691e-006 7.50049e-006 178.608 12.2612 69.9102 -35.1688 26.0559 1.25819 15.0224 8.96456 14.0664 28.7808 1.56902e-005 2.33206e-005 1.94162 7.48828 -87.2579 12.0894 5.86474 0.511746 0.431683 5.88156 0.252215 -22.1977 5.439 2.25577 -2.18503 5.43902 2.25578 91.4461 -32.2027 -103.151 25.0467 -38.643 14.4462 20.4784 -8.29771 -41.6508 -5.37983 -0.319997 -0.0162406 -73.9686 -37.7523 103.848 -27.7226 -19.9835 7.75018 58.421 78.5654 -56.0883 2.6653 -0.654112 -17.2662 9.02539 -7.79254 1.59143 -7.22739 -7.45526 -11.4928 
69.3748 90.4699 -9.59769 56.1319 -53.2828 66.0739 -176.378 53.7697 84.6089 -56.6509 4.05074 3.91498 68.7857 12.4241 6.34731 28.7808 5.43691e-006 7.50049e-006 176.668 9.32533 68.8507 -27.9585 20.9823 0.898668 14.162 11.9733 18.4726 28.7808 1.56902e-005 2.33206e-005 2.36257 7.62798 -87.2241 11.8448 6.82201 0.535622 0.191834 6.83893 0.233413 -22.4718 6.34437 2.56927 -2.45916 6.34437 2.56926 88.0116 -33.3331 -109.287 18.9698 -30.9517 9.02222 26.091 -7.68514 -33.4736 -5.37983 -0.319997 -0.0162406 -73.347 -37.3974 104.978 -30.0773 -19.7554 8.00315 18.0907 66.5905 -18.6347 15.0062 -1.82251 -15.617 10.9212 -10.6697 3.71419 -6.98992 -10.6637 -14.524 
